999
Agencia de Recaudación de la Provincia de Buenos Aires
999
DATE : Mon Jul 30 13:46:03 ART 2018
  0
SECTION
  2
HEADER
  9
$ACADVER
  1
AC1009
  9
$CECOLOR
 62
   256
  9
$CELTYPE
  6
DUPLAN
  9
$CLAYER
  8
0
  9
$ELEVATION
 40
0.000
  9
$EXTMAX
 10
5327723.420000
 20
6152097.080000
  9
$EXTMIN
 10
5327263.490000
 20
6151666.360000
  9
$INSBASE
 10
0.0
 20
0.0
 30
0.0
  9
$LIMCHECK
 70
     1
  9
$LIMMAX
 10
5327723.420000
 20
6152097.080000
  9
$LIMMIN
 10
5327263.490000
 20
6151666.360000
  9
$LUNITS
 70
     2
  9
$LUPREC
 70
     2
  0
ENDSEC
  0
SECTION
  2
TABLES
  0
TABLE
  2
STYLE
 70
     1
  0
STYLE
  2
STANDARD
 70
     0
 40
0.000
 41
1.000
 50
0.000
 71
     0
 42
1.000
  3
xxx.txt
  4
yyy.txt
  0
ENDTAB
  0
TABLE
  2
LTYPE
 70
     1
  0
LTYPE
  2
CONTINUE
 70
     0
  3

 72
    65
 73
     0
 40
0.000
  0
ENDTAB
  0
TABLE
  2
LAYER
 70
     2
  0
LAYER
  2
Macizo
 70
     0
 62
   131
  6
CONTINUE
  0
LAYER
  2
MacizosLinderos
 70
     0
 62
   131
  6
CONTINUE
  0
LAYER
  2
Parcelas
 70
     0
 62
   131
  6
CONTINUE
  0
LAYER
  2
ParcelasReunion
 70
     0
 62
   131
  6
CONTINUE
  0
LAYER
  2
Cotas
 70
     0
 62
   131
  6
CONTINUE
  0
ENDTAB
  0
ENDSEC
  0
SECTION
  2
ENTITIES
  0
POLYLINE
  8
Macizo
 62
    95
 66
     1
 10
0.0
 20
0.0
 70
     9
  0
VERTEX
  8
Macizo
 10
5327390.870
 20
6151891.160
 70
    32
  0
VERTEX
  8
Macizo
 10
5327420.150
 20
6151888.660
 70
    32
  0
VERTEX
  8
Macizo
 10
5327434.680
 20
6151887.420
 70
    32
  0
VERTEX
  8
Macizo
 10
5327449.270
 20
6151886.170
 70
    32
  0
VERTEX
  8
Macizo
 10
5327477.710
 20
6151883.740
 70
    32
  0
VERTEX
  8
Macizo
 10
5327474.420
 20
6151848.350
 70
    32
  0
VERTEX
  8
Macizo
 10
5327472.950
 20
6151832.580
 70
    32
  0
VERTEX
  8
Macizo
 10
5327471.800
 20
6151820.130
 70
    32
  0
VERTEX
  8
Macizo
 10
5327469.990
 20
6151800.710
 70
    32
  0
VERTEX
  8
Macizo
 10
5327466.330
 20
6151797.170
 70
    32
  0
VERTEX
  8
Macizo
 10
5327455.360
 20
6151798.100
 70
    32
  0
VERTEX
  8
Macizo
 10
5327440.420
 20
6151799.370
 70
    32
  0
VERTEX
  8
Macizo
 10
5327426.330
 20
6151800.570
 70
    32
  0
VERTEX
  8
Macizo
 10
5327411.750
 20
6151801.810
 70
    32
  0
VERTEX
  8
Macizo
 10
5327382.440
 20
6151804.310
 70
    32
  0
VERTEX
  8
Macizo
 10
5327385.900
 20
6151839.960
 70
    32
  0
VERTEX
  8
Macizo
 10
5327387.430
 20
6151855.680
 70
    32
  0
VERTEX
  8
Macizo
 10
5327390.870
 20
6151891.160
 70
    32
  0
SEQEND
  0
TEXT
  8
Macizo
 10
5327430.126812
 20
6151844.032206
 62
95
 40
3.0
 50
1
  1
Pdo- 44 Cir- 1 Sec- B Qt- 48 Mz- 48B
 72
1
 73
1
 11
5327430.126812
 21
6151844.032206
  0
POLYLINE
  8
MacizosLinderos
 62
   115
 66
     1
 10
0.0
 20
0.0
 70
     9
  0
VERTEX
  8
MacizosLinderos
 10
5327275.290
 20
6151792.880
 70
    32
  0
VERTEX
  8
MacizosLinderos
 10
5327301.170
 20
6151790.440
 70
    32
  0
VERTEX
  8
MacizosLinderos
 10
5327315.610
 20
6151789.080
 70
    32
  0
VERTEX
  8
MacizosLinderos
 10
5327329.440
 20
6151787.780
 70
    32
  0
VERTEX
  8
MacizosLinderos
 10
5327346.850
 20
6151786.130
 70
    32
  0
VERTEX
  8
MacizosLinderos
 10
5327354.590
 20
6151785.400
 70
    32
  0
VERTEX
  8
MacizosLinderos
 10
5327358.060
 20
6151781.570
 70
    32
  0
VERTEX
  8
MacizosLinderos
 10
5327355.750
 20
6151759.280
 70
    32
  0
VERTEX
  8
MacizosLinderos
 10
5327354.740
 20
6151749.580
 70
    32
  0
VERTEX
  8
MacizosLinderos
 10
5327353.540
 20
6151737.980
 70
    32
  0
VERTEX
  8
MacizosLinderos
 10
5327352.310
 20
6151726.160
 70
    32
  0
VERTEX
  8
MacizosLinderos
 10
5327349.590
 20
6151699.930
 70
    32
  0
VERTEX
  8
MacizosLinderos
 10
5327347.150
 20
6151698.030
 70
    32
  0
VERTEX
  8
MacizosLinderos
 10
5327337.140
 20
6151698.950
 70
    32
  0
VERTEX
  8
MacizosLinderos
 10
5327321.540
 20
6151700.390
 70
    32
  0
VERTEX
  8
MacizosLinderos
 10
5327318.860
 20
6151700.630
 70
    32
  0
VERTEX
  8
MacizosLinderos
 10
5327306.850
 20
6151701.740
 70
    32
  0
VERTEX
  8
MacizosLinderos
 10
5327263.490
 20
6151705.720
 70
    32
  0
VERTEX
  8
MacizosLinderos
 10
5327267.060
 20
6151740.870
 70
    32
  0
VERTEX
  8
MacizosLinderos
 10
5327268.760
 20
6151757.630
 70
    32
  0
VERTEX
  8
MacizosLinderos
 10
5327269.930
 20
6151769.090
 70
    32
  0
VERTEX
  8
MacizosLinderos
 10
5327271.050
 20
6151780.140
 70
    32
  0
VERTEX
  8
MacizosLinderos
 10
5327272.080
 20
6151790.320
 70
    32
  0
VERTEX
  8
MacizosLinderos
 10
5327275.290
 20
6151792.880
 70
    32
  0
SEQEND
  0
TEXT
  8
MacizosLinderos
 10
5327310.866686
 20
6151745.409503
 62
115
 40
3.0
 50
1
  1
Pdo- 44 Cir- 1 Sec- B Qt- 48 Mz- 48C
 72
1
 73
1
 11
5327310.866686
 21
6151745.409503
  0
POLYLINE
  8
MacizosLinderos
 62
   115
 66
     1
 10
0.0
 20
0.0
 70
     9
  0
VERTEX
  8
MacizosLinderos
 10
5327281.500
 20
6151901.410
 70
    32
  0
VERTEX
  8
MacizosLinderos
 10
5327296.680
 20
6151900.020
 70
    32
  0
VERTEX
  8
MacizosLinderos
 10
5327310.550
 20
6151898.740
 70
    32
  0
VERTEX
  8
MacizosLinderos
 10
5327326.520
 20
6151897.280
 70
    32
  0
VERTEX
  8
MacizosLinderos
 10
5327338.970
 20
6151896.140
 70
    32
  0
VERTEX
  8
MacizosLinderos
 10
5327354.800
 20
6151894.690
 70
    32
  0
VERTEX
  8
MacizosLinderos
 10
5327370.040
 20
6151893.290
 70
    32
  0
VERTEX
  8
MacizosLinderos
 10
5327366.440
 20
6151857.850
 70
    32
  0
VERTEX
  8
MacizosLinderos
 10
5327364.770
 20
6151841.380
 70
    32
  0
VERTEX
  8
MacizosLinderos
 10
5327361.140
 20
6151805.640
 70
    32
  0
VERTEX
  8
MacizosLinderos
 10
5327345.740
 20
6151807.070
 70
    32
  0
VERTEX
  8
MacizosLinderos
 10
5327330.610
 20
6151808.470
 70
    32
  0
VERTEX
  8
MacizosLinderos
 10
5327316.190
 20
6151809.800
 70
    32
  0
VERTEX
  8
MacizosLinderos
 10
5327301.840
 20
6151811.130
 70
    32
  0
VERTEX
  8
MacizosLinderos
 10
5327287.570
 20
6151812.450
 70
    32
  0
VERTEX
  8
MacizosLinderos
 10
5327272.810
 20
6151813.820
 70
    32
  0
VERTEX
  8
MacizosLinderos
 10
5327276.360
 20
6151849.550
 70
    32
  0
VERTEX
  8
MacizosLinderos
 10
5327277.960
 20
6151865.700
 70
    32
  0
VERTEX
  8
MacizosLinderos
 10
5327281.500
 20
6151901.410
 70
    32
  0
SEQEND
  0
TEXT
  8
MacizosLinderos
 10
5327321.381561
 20
6151853.555793
 62
115
 40
3.0
 50
1
  1
Pdo- 44 Cir- 1 Sec- B Qt- 48 Mz- 48A
 72
1
 73
1
 11
5327321.381561
 21
6151853.555793
  0
POLYLINE
  8
MacizosLinderos
 62
   115
 66
     1
 10
0.0
 20
0.0
 70
     9
  0
VERTEX
  8
MacizosLinderos
 10
5327333.310
 20
6152009.650
 70
    32
  0
VERTEX
  8
MacizosLinderos
 10
5327373.670
 20
6152006.200
 70
    32
  0
VERTEX
  8
MacizosLinderos
 10
5327376.400
 20
6152002.960
 70
    32
  0
VERTEX
  8
MacizosLinderos
 10
5327369.590
 20
6151923.250
 70
    32
  0
VERTEX
  8
MacizosLinderos
 10
5327366.340
 20
6151920.510
 70
    32
  0
VERTEX
  8
MacizosLinderos
 10
5327285.640
 20
6151927.410
 70
    32
  0
VERTEX
  8
MacizosLinderos
 10
5327282.900
 20
6151930.660
 70
    32
  0
VERTEX
  8
MacizosLinderos
 10
5327286.050
 20
6151967.520
 70
    32
  0
VERTEX
  8
MacizosLinderos
 10
5327289.720
 20
6152010.370
 70
    32
  0
VERTEX
  8
MacizosLinderos
 10
5327292.960
 20
6152013.100
 70
    32
  0
VERTEX
  8
MacizosLinderos
 10
5327333.310
 20
6152009.650
 70
    32
  0
SEQEND
  0
TEXT
  8
MacizosLinderos
 10
5327329.651228
 20
6151966.804441
 62
115
 40
3.0
 50
1
  1
Pdo- 44 Cir- 1 Sec- B Qt- 41 Mz- 41C
 72
1
 73
1
 11
5327329.651228
 21
6151966.804441
  0
POLYLINE
  8
MacizosLinderos
 62
   115
 66
     1
 10
0.0
 20
0.0
 70
     9
  0
VERTEX
  8
MacizosLinderos
 10
5327383.660
 20
6151782.180
 70
    32
  0
VERTEX
  8
MacizosLinderos
 10
5327398.470
 20
6151781.020
 70
    32
  0
VERTEX
  8
MacizosLinderos
 10
5327409.880
 20
6151780.120
 70
    32
  0
VERTEX
  8
MacizosLinderos
 10
5327425.250
 20
6151778.920
 70
    32
  0
VERTEX
  8
MacizosLinderos
 10
5327439.130
 20
6151777.830
 70
    32
  0
VERTEX
  8
MacizosLinderos
 10
5327448.970
 20
6151777.060
 70
    32
  0
VERTEX
  8
MacizosLinderos
 10
5327459.020
 20
6151776.280
 70
    32
  0
VERTEX
  8
MacizosLinderos
 10
5327465.130
 20
6151775.800
 70
    32
  0
VERTEX
  8
MacizosLinderos
 10
5327468.340
 20
6151772.240
 70
    32
  0
VERTEX
  8
MacizosLinderos
 10
5327466.380
 20
6151749.530
 70
    32
  0
VERTEX
  8
MacizosLinderos
 10
5327465.510
 20
6151739.470
 70
    32
  0
VERTEX
  8
MacizosLinderos
 10
5327464.210
 20
6151724.510
 70
    32
  0
VERTEX
  8
MacizosLinderos
 10
5327461.140
 20
6151689.030
 70
    32
  0
VERTEX
  8
MacizosLinderos
 10
5327446.370
 20
6151690.070
 70
    32
  0
VERTEX
  8
MacizosLinderos
 10
5327431.640
 20
6151691.110
 70
    32
  0
VERTEX
  8
MacizosLinderos
 10
5327422.080
 20
6151691.780
 70
    32
  0
VERTEX
  8
MacizosLinderos
 10
5327412.990
 20
6151692.420
 70
    32
  0
VERTEX
  8
MacizosLinderos
 10
5327403.630
 20
6151693.080
 70
    32
  0
VERTEX
  8
MacizosLinderos
 10
5327390.570
 20
6151694.070
 70
    32
  0
VERTEX
  8
MacizosLinderos
 10
5327376.110
 20
6151695.020
 70
    32
  0
VERTEX
  8
MacizosLinderos
 10
5327373.390
 20
6151698.220
 70
    32
  0
VERTEX
  8
MacizosLinderos
 10
5327375.230
 20
6151718.100
 70
    32
  0
VERTEX
  8
MacizosLinderos
 10
5327376.330
 20
6151730.050
 70
    32
  0
VERTEX
  8
MacizosLinderos
 10
5327377.840
 20
6151746.380
 70
    32
  0
VERTEX
  8
MacizosLinderos
 10
5327378.760
 20
6151756.410
 70
    32
  0
VERTEX
  8
MacizosLinderos
 10
5327380.910
 20
6151779.690
 70
    32
  0
VERTEX
  8
MacizosLinderos
 10
5327383.660
 20
6151782.180
 70
    32
  0
SEQEND
  0
TEXT
  8
MacizosLinderos
 10
5327420.962724
 20
6151735.481398
 62
115
 40
3.0
 50
1
  1
Pdo- 44 Cir- 1 Sec- B Qt- 48 Mz- 48D
 72
1
 73
1
 11
5327420.962724
 21
6151735.481398
  0
POLYLINE
  8
MacizosLinderos
 62
   115
 66
     1
 10
0.0
 20
0.0
 70
     9
  0
VERTEX
  8
MacizosLinderos
 10
5327483.750
 20
6151932.060
 70
    32
  0
VERTEX
  8
MacizosLinderos
 10
5327485.580
 20
6151953.480
 70
    32
  0
VERTEX
  8
MacizosLinderos
 10
5327487.410
 20
6151974.900
 70
    32
  0
VERTEX
  8
MacizosLinderos
 10
5327488.990
 20
6151993.330
 70
    32
  0
VERTEX
  8
MacizosLinderos
 10
5327486.250
 20
6151996.580
 70
    32
  0
VERTEX
  8
MacizosLinderos
 10
5327444.900
 20
6152000.110
 70
    32
  0
VERTEX
  8
MacizosLinderos
 10
5327403.550
 20
6152003.640
 70
    32
  0
VERTEX
  8
MacizosLinderos
 10
5327400.310
 20
6152000.910
 70
    32
  0
VERTEX
  8
MacizosLinderos
 10
5327396.900
 20
6151961.050
 70
    32
  0
VERTEX
  8
MacizosLinderos
 10
5327393.500
 20
6151921.200
 70
    32
  0
VERTEX
  8
MacizosLinderos
 10
5327396.230
 20
6151917.960
 70
    32
  0
VERTEX
  8
MacizosLinderos
 10
5327437.580
 20
6151914.420
 70
    32
  0
VERTEX
  8
MacizosLinderos
 10
5327478.930
 20
6151910.890
 70
    32
  0
VERTEX
  8
MacizosLinderos
 10
5327482.180
 20
6151913.620
 70
    32
  0
VERTEX
  8
MacizosLinderos
 10
5327483.750
 20
6151932.060
 70
    32
  0
SEQEND
  0
TEXT
  8
MacizosLinderos
 10
5327441.242738
 20
6151957.266023
 62
115
 40
3.0
 50
1
  1
Pdo- 44 Cir- 1 Sec- B Qt- 41 Mz- 41D
 72
1
 73
1
 11
5327441.242738
 21
6151957.266023
  0
POLYLINE
  8
MacizosLinderos
 62
   115
 66
     1
 10
0.0
 20
0.0
 70
     9
  0
VERTEX
  8
MacizosLinderos
 10
5327503.780
 20
6151879.500
 70
    32
  0
VERTEX
  8
MacizosLinderos
 10
5327703.480
 20
6151864.890
 70
    32
  0
VERTEX
  8
MacizosLinderos
 10
5327688.590
 20
6151666.360
 70
    32
  0
VERTEX
  8
MacizosLinderos
 10
5327488.040
 20
6151680.900
 70
    32
  0
VERTEX
  8
MacizosLinderos
 10
5327503.780
 20
6151879.500
 70
    32
  0
SEQEND
  0
TEXT
  8
MacizosLinderos
 10
5327595.956127
 20
6151772.843858
 62
115
 40
3.0
 50
1
  1
Pdo- 44 Cir- 1 Sec- B Qt- 49
 72
1
 73
1
 11
5327595.956127
 21
6151772.843858
  0
POLYLINE
  8
MacizosLinderos
 62
   115
 66
     1
 10
0.0
 20
0.0
 70
     9
  0
VERTEX
  8
MacizosLinderos
 10
5327524.380
 20
6152097.080
 70
    32
  0
VERTEX
  8
MacizosLinderos
 10
5327723.420
 20
6152082.780
 70
    32
  0
VERTEX
  8
MacizosLinderos
 10
5327708.090
 20
6151889.560
 70
    32
  0
VERTEX
  8
MacizosLinderos
 10
5327508.230
 20
6151904.200
 70
    32
  0
VERTEX
  8
MacizosLinderos
 10
5327524.380
 20
6152097.080
 70
    32
  0
SEQEND
  0
TEXT
  8
MacizosLinderos
 10
5327616.048467
 20
6151993.335284
 62
115
 40
3.0
 50
1
  1
Pdo- 44 Cir- 1 Sec- B Qt- 42
 72
1
 73
1
 11
5327616.048467
 21
6151993.335284
  0
POLYLINE
  8
Parcelas
 62
   100
 66
     1
 10
0.0
 20
0.0
 70
     9
  0
VERTEX
  8
Parcelas
 10
5327417.160
 20
6151853.180
 70
    32
  0
VERTEX
  8
Parcelas
 10
5327387.430
 20
6151855.680
 70
    32
  0
VERTEX
  8
Parcelas
 10
5327390.870
 20
6151891.160
 70
    32
  0
VERTEX
  8
Parcelas
 10
5327420.150
 20
6151888.660
 70
    32
  0
VERTEX
  8
Parcelas
 10
5327417.160
 20
6151853.180
 70
    32
  0
SEQEND
  0
TEXT
  8
Parcelas
 10
5327403.895823
 20
6151872.125472
 62
100
 40
2.0
 50
1
  1
1
 72
1
 73
1
 11
5327403.895823
 21
6151872.125472
  0
POLYLINE
  8
Parcelas
 62
   100
 66
     1
 10
0.0
 20
0.0
 70
     9
  0
VERTEX
  8
Parcelas
 10
5327431.270
 20
6151851.990
 70
    32
  0
VERTEX
  8
Parcelas
 10
5327417.160
 20
6151853.180
 70
    32
  0
VERTEX
  8
Parcelas
 10
5327420.150
 20
6151888.660
 70
    32
  0
VERTEX
  8
Parcelas
 10
5327434.680
 20
6151887.420
 70
    32
  0
VERTEX
  8
Parcelas
 10
5327431.270
 20
6151851.990
 70
    32
  0
SEQEND
  0
TEXT
  8
Parcelas
 10
5327425.822365
 20
6151870.399463
 62
100
 40
2.0
 50
1
  1
2
 72
1
 73
1
 11
5327425.822365
 21
6151870.399463
  0
POLYLINE
  8
Parcelas
 62
   100
 66
     1
 10
0.0
 20
0.0
 70
     9
  0
VERTEX
  8
Parcelas
 10
5327445.310
 20
6151850.800
 70
    32
  0
VERTEX
  8
Parcelas
 10
5327431.270
 20
6151851.990
 70
    32
  0
VERTEX
  8
Parcelas
 10
5327434.680
 20
6151887.420
 70
    32
  0
VERTEX
  8
Parcelas
 10
5327449.270
 20
6151886.170
 70
    32
  0
VERTEX
  8
Parcelas
 10
5327445.310
 20
6151850.800
 70
    32
  0
SEQEND
  0
TEXT
  8
Parcelas
 10
5327440.143889
 20
6151869.208659
 62
100
 40
2.0
 50
1
  1
3
 72
1
 73
1
 11
5327440.143889
 21
6151869.208659
  0
POLYLINE
  8
Parcelas
 62
   100
 66
     1
 10
0.0
 20
0.0
 70
     9
  0
VERTEX
  8
Parcelas
 10
5327445.310
 20
6151850.800
 70
    32
  0
VERTEX
  8
Parcelas
 10
5327449.270
 20
6151886.170
 70
    32
  0
VERTEX
  8
Parcelas
 10
5327477.710
 20
6151883.740
 70
    32
  0
VERTEX
  8
Parcelas
 10
5327474.420
 20
6151848.350
 70
    32
  0
VERTEX
  8
Parcelas
 10
5327445.310
 20
6151850.800
 70
    32
  0
SEQEND
  0
TEXT
  8
Parcelas
 10
5327461.668032
 20
6151867.196944
 62
100
 40
2.0
 50
1
  1
4
 72
1
 73
1
 11
5327461.668032
 21
6151867.196944
  0
POLYLINE
  8
Parcelas
 62
   100
 66
     1
 10
0.0
 20
0.0
 70
     9
  0
VERTEX
  8
Parcelas
 10
5327429.760
 20
6151836.240
 70
    32
  0
VERTEX
  8
Parcelas
 10
5327431.270
 20
6151851.990
 70
    32
  0
VERTEX
  8
Parcelas
 10
5327445.310
 20
6151850.800
 70
    32
  0
VERTEX
  8
Parcelas
 10
5327474.420
 20
6151848.350
 70
    32
  0
VERTEX
  8
Parcelas
 10
5327472.950
 20
6151832.580
 70
    32
  0
VERTEX
  8
Parcelas
 10
5327444.000
 20
6151835.030
 70
    32
  0
VERTEX
  8
Parcelas
 10
5327429.760
 20
6151836.240
 70
    32
  0
SEQEND
  0
TEXT
  8
Parcelas
 10
5327452.103627
 20
6151842.286193
 62
100
 40
2.0
 50
1
  1
5
 72
1
 73
1
 11
5327452.103627
 21
6151842.286193
  0
POLYLINE
  8
Parcelas
 62
   100
 66
     1
 10
0.0
 20
0.0
 70
     9
  0
VERTEX
  8
Parcelas
 10
5327472.950
 20
6151832.580
 70
    32
  0
VERTEX
  8
Parcelas
 10
5327471.800
 20
6151820.130
 70
    32
  0
VERTEX
  8
Parcelas
 10
5327457.700
 20
6151821.330
 70
    32
  0
VERTEX
  8
Parcelas
 10
5327442.940
 20
6151822.580
 70
    32
  0
VERTEX
  8
Parcelas
 10
5327444.000
 20
6151835.030
 70
    32
  0
VERTEX
  8
Parcelas
 10
5327472.950
 20
6151832.580
 70
    32
  0
SEQEND
  0
TEXT
  8
Parcelas
 10
5327457.924303
 20
6151827.583830
 62
100
 40
2.0
 50
1
  1
6 A
 72
1
 73
1
 11
5327457.924303
 21
6151827.583830
  0
POLYLINE
  8
Parcelas
 62
   100
 66
     1
 10
0.0
 20
0.0
 70
     9
  0
VERTEX
  8
Parcelas
 10
5327457.700
 20
6151821.330
 70
    32
  0
VERTEX
  8
Parcelas
 10
5327471.800
 20
6151820.130
 70
    32
  0
VERTEX
  8
Parcelas
 10
5327469.990
 20
6151800.710
 70
    32
  0
VERTEX
  8
Parcelas
 10
5327466.330
 20
6151797.170
 70
    32
  0
VERTEX
  8
Parcelas
 10
5327455.360
 20
6151798.100
 70
    32
  0
VERTEX
  8
Parcelas
 10
5327457.700
 20
6151821.330
 70
    32
  0
SEQEND
  0
TEXT
  8
Parcelas
 10
5327463.522806
 20
6151809.300169
 62
100
 40
2.0
 50
1
  1
6 B
 72
1
 73
1
 11
5327463.522806
 21
6151809.300169
  0
POLYLINE
  8
Parcelas
 62
   100
 66
     1
 10
0.0
 20
0.0
 70
     9
  0
VERTEX
  8
Parcelas
 10
5327442.940
 20
6151822.580
 70
    32
  0
VERTEX
  8
Parcelas
 10
5327457.700
 20
6151821.330
 70
    32
  0
VERTEX
  8
Parcelas
 10
5327455.360
 20
6151798.100
 70
    32
  0
VERTEX
  8
Parcelas
 10
5327440.420
 20
6151799.370
 70
    32
  0
VERTEX
  8
Parcelas
 10
5327442.940
 20
6151822.580
 70
    32
  0
SEQEND
  0
TEXT
  8
Parcelas
 10
5327449.102788
 20
6151810.321460
 62
100
 40
2.0
 50
1
  1
6 C
 72
1
 73
1
 11
5327449.102788
 21
6151810.321460
  0
POLYLINE
  8
Parcelas
 62
   100
 66
     1
 10
0.0
 20
0.0
 70
     9
  0
VERTEX
  8
Parcelas
 10
5327429.760
 20
6151836.240
 70
    32
  0
VERTEX
  8
Parcelas
 10
5327444.000
 20
6151835.030
 70
    32
  0
VERTEX
  8
Parcelas
 10
5327442.940
 20
6151822.580
 70
    32
  0
VERTEX
  8
Parcelas
 10
5327440.420
 20
6151799.370
 70
    32
  0
VERTEX
  8
Parcelas
 10
5327426.330
 20
6151800.570
 70
    32
  0
VERTEX
  8
Parcelas
 10
5327429.760
 20
6151836.240
 70
    32
  0
SEQEND
  0
TEXT
  8
Parcelas
 10
5327435.179025
 20
6151817.841564
 62
100
 40
2.0
 50
1
  1
7
 72
1
 73
1
 11
5327435.179025
 21
6151817.841564
  0
POLYLINE
  8
Parcelas
 62
   100
 66
     1
 10
0.0
 20
0.0
 70
     9
  0
VERTEX
  8
Parcelas
 10
5327415.440
 20
6151837.460
 70
    32
  0
VERTEX
  8
Parcelas
 10
5327429.760
 20
6151836.240
 70
    32
  0
VERTEX
  8
Parcelas
 10
5327426.330
 20
6151800.570
 70
    32
  0
VERTEX
  8
Parcelas
 10
5327411.750
 20
6151801.810
 70
    32
  0
VERTEX
  8
Parcelas
 10
5327415.440
 20
6151837.460
 70
    32
  0
SEQEND
  0
TEXT
  8
Parcelas
 10
5327420.814595
 20
6151818.966580
 62
100
 40
2.0
 50
1
  1
8
 72
1
 73
1
 11
5327420.814595
 21
6151818.966580
  0
POLYLINE
  8
Parcelas
 62
   100
 66
     1
 10
0.0
 20
0.0
 70
     9
  0
VERTEX
  8
Parcelas
 10
5327415.440
 20
6151837.460
 70
    32
  0
VERTEX
  8
Parcelas
 10
5327411.750
 20
6151801.810
 70
    32
  0
VERTEX
  8
Parcelas
 10
5327382.440
 20
6151804.310
 70
    32
  0
VERTEX
  8
Parcelas
 10
5327385.900
 20
6151839.960
 70
    32
  0
VERTEX
  8
Parcelas
 10
5327415.440
 20
6151837.460
 70
    32
  0
SEQEND
  0
TEXT
  8
Parcelas
 10
5327398.886142
 20
6151820.907912
 62
100
 40
2.0
 50
1
  1
9
 72
1
 73
1
 11
5327398.886142
 21
6151820.907912
  0
POLYLINE
  8
Parcelas
 62
   100
 66
     1
 10
0.0
 20
0.0
 70
     9
  0
VERTEX
  8
Parcelas
 10
5327415.440
 20
6151837.460
 70
    32
  0
VERTEX
  8
Parcelas
 10
5327385.900
 20
6151839.960
 70
    32
  0
VERTEX
  8
Parcelas
 10
5327387.430
 20
6151855.680
 70
    32
  0
VERTEX
  8
Parcelas
 10
5327417.160
 20
6151853.180
 70
    32
  0
VERTEX
  8
Parcelas
 10
5327431.270
 20
6151851.990
 70
    32
  0
VERTEX
  8
Parcelas
 10
5327429.760
 20
6151836.240
 70
    32
  0
VERTEX
  8
Parcelas
 10
5327415.440
 20
6151837.460
 70
    32
  0
SEQEND
  0
TEXT
  8
Parcelas
 10
5327408.596402
 20
6151845.968227
 62
100
 40
2.0
 50
1
  1
10
 72
1
 73
1
 11
5327408.596402
 21
6151845.968227
  0
TEXT
  8
Cotas
 10
5327471.379239
 20
6151826.446978
 62
90
 40
0.5
 50
85
  1
12.50
 72
1
 73
1
 11
5327471.379239
 21
6151826.446978
  0
TEXT
  8
Cotas
 10
5327464.665200
 20
6151819.733602
 62
90
 40
0.5
 50
-5
  1
14.00
 72
1
 73
1
 11
5327464.665200
 21
6151819.733602
  0
TEXT
  8
Cotas
 10
5327424.299039
 20
6151853.581462
 62
90
 40
0.5
 50
-5
  1
14.43
 72
1
 73
1
 11
5327424.299039
 21
6151853.581462
  0
TEXT
  8
Cotas
 10
5327427.329968
 20
6151887.043622
 62
90
 40
0.5
 50
-5
  1
14.43
 72
1
 73
1
 11
5327427.329968
 21
6151887.043622
  0
TEXT
  8
Cotas
 10
5327433.459860
 20
6151800.966393
 62
90
 40
0.5
 50
-5
  1
14.43
 72
1
 73
1
 11
5327433.459860
 21
6151800.966393
  0
TEXT
  8
Cotas
 10
5327450.235614
 20
6151820.958567
 62
90
 40
0.5
 50
-5
  1
15.00
 72
1
 73
1
 11
5327450.235614
 21
6151820.958567
  0
TEXT
  8
Cotas
 10
5327447.974701
 20
6151799.731406
 62
90
 40
0.5
 50
-5
  1
15.00
 72
1
 73
1
 11
5327447.974701
 21
6151799.731406
  0
TEXT
  8
Cotas
 10
5327431.510436
 20
6151844.019565
 62
90
 40
0.5
 50
85
  1
16.30
 72
1
 73
1
 11
5327431.510436
 21
6151844.019565
  0
TEXT
  8
Cotas
 10
5327429.519564
 20
6151844.210435
 62
90
 40
0.5
 50
85
  1
16.30
 72
1
 73
1
 11
5327429.519564
 21
6151844.210435
  0
TEXT
  8
Cotas
 10
5327387.660297
 20
6151847.723129
 62
90
 40
0.5
 50
84
  1
16.30
 72
1
 73
1
 11
5327387.660297
 21
6151847.723129
  0
TEXT
  8
Cotas
 10
5327442.674157
 20
6151810.867060
 62
90
 40
0.5
 50
84
  1
22.50
 72
1
 73
1
 11
5327442.674157
 21
6151810.867060
  0
TEXT
  8
Cotas
 10
5327402.378794
 20
6151855.426483
 62
90
 40
0.5
 50
-5
  1
29.77
 72
1
 73
1
 11
5327402.378794
 21
6151855.426483
  0
TEXT
  8
Cotas
 10
5327400.585670
 20
6151837.713562
 62
90
 40
0.5
 50
-5
  1
29.77
 72
1
 73
1
 11
5327400.585670
 21
6151837.713562
  0
TEXT
  8
Cotas
 10
5327419.651468
 20
6151870.836025
 62
90
 40
0.5
 50
85
  1
35.00
 72
1
 73
1
 11
5327419.651468
 21
6151870.836025
  0
TEXT
  8
Cotas
 10
5327433.970400
 20
6151869.609197
 62
90
 40
0.5
 50
85
  1
35.00
 72
1
 73
1
 11
5327433.970400
 21
6151869.609197
  0
TEXT
  8
Cotas
 10
5327446.296209
 20
6151868.596264
 62
90
 40
0.5
 50
84
  1
35.00
 72
1
 73
1
 11
5327446.296209
 21
6151868.596264
  0
TEXT
  8
Cotas
 10
5327414.589686
 20
6151819.532044
 62
90
 40
0.5
 50
84
  1
35.45
 72
1
 73
1
 11
5327414.589686
 21
6151819.532044
  0
TEXT
  8
Cotas
 10
5327452.760706
 20
6151849.170744
 62
90
 40
0.5
 50
-5
  1
43.75
 72
1
 73
1
 11
5327452.760706
 21
6151849.170744
  0
TEXT
  8
Cotas
 10
5327409.266226
 20
6151852.839698
 62
90
 40
0.5
 50
-5
  1
43.75
 72
1
 73
1
 11
5327409.266226
 21
6151852.839698
  0
TEXT
  8
Cotas
 10
5327467.464775
 20
6151799.658792
 62
90
 40
0.5
 50
44
  1
4.24
 72
1
 73
1
 11
5327467.464775
 21
6151799.658792
  0
TEXT
  8
Cotas
 10
5327460.929474
 20
6151798.631426
 62
90
 40
0.5
 50
-5
  1
11.00
 72
1
 73
1
 11
5327460.929474
 21
6151798.631426
  0
TEXT
  8
Cotas
 10
5327444.466395
 20
6151828.720166
 62
90
 40
0.5
 50
85
  1
12.50
 72
1
 73
1
 11
5327444.466395
 21
6151828.720166
  0
TEXT
  8
Cotas
 10
5327438.374455
 20
6151852.391427
 62
90
 40
0.5
 50
-5
  1
14.43
 72
1
 73
1
 11
5327438.374455
 21
6151852.391427
  0
TEXT
  8
Cotas
 10
5327422.515112
 20
6151835.853610
 62
90
 40
0.5
 50
-5
  1
14.43
 72
1
 73
1
 11
5327422.515112
 21
6151835.853610
  0
TEXT
  8
Cotas
 10
5327441.889638
 20
6151885.798650
 62
90
 40
0.5
 50
-5
  1
14.43
 72
1
 73
1
 11
5327441.889638
 21
6151885.798650
  0
TEXT
  8
Cotas
 10
5327419.124742
 20
6151802.186403
 62
90
 40
0.5
 50
-5
  1
14.43
 72
1
 73
1
 11
5327419.124742
 21
6151802.186403
  0
TEXT
  8
Cotas
 10
5327436.795333
 20
6151834.638591
 62
90
 40
0.5
 50
-5
  1
14.65
 72
1
 73
1
 11
5327436.795333
 21
6151834.638591
  0
TEXT
  8
Cotas
 10
5327472.689316
 20
6151840.557813
 62
90
 40
0.5
 50
85
  1
16.30
 72
1
 73
1
 11
5327472.689316
 21
6151840.557813
  0
TEXT
  8
Cotas
 10
5327469.899315
 20
6151810.512801
 62
90
 40
0.5
 50
85
  1
19.50
 72
1
 73
1
 11
5327469.899315
 21
6151810.512801
  0
TEXT
  8
Cotas
 10
5327457.524965
 20
6151809.614775
 62
90
 40
0.5
 50
84
  1
22.50
 72
1
 73
1
 11
5327457.524965
 21
6151809.614775
  0
TEXT
  8
Cotas
 10
5327459.948867
 20
6151850.571477
 62
90
 40
0.5
 50
-5
  1
28.87
 72
1
 73
1
 11
5327459.948867
 21
6151850.571477
  0
TEXT
  8
Cotas
 10
5327463.404867
 20
6151883.958630
 62
90
 40
0.5
 50
-5
  1
28.87
 72
1
 73
1
 11
5327463.404867
 21
6151883.958630
  0
TEXT
  8
Cotas
 10
5327457.454715
 20
6151822.352912
 62
90
 40
0.5
 50
-5
  1
29.00
 72
1
 73
1
 11
5327457.454715
 21
6151822.352912
  0
TEXT
  8
Cotas
 10
5327458.390673
 20
6151832.808562
 62
90
 40
0.5
 50
-5
  1
29.00
 72
1
 73
1
 11
5327458.390673
 21
6151832.808562
  0
TEXT
  8
Cotas
 10
5327405.424927
 20
6151888.913625
 62
90
 40
0.5
 50
-5
  1
29.77
 72
1
 73
1
 11
5327405.424927
 21
6151888.913625
  0
TEXT
  8
Cotas
 10
5327397.179987
 20
6151804.056382
 62
90
 40
0.5
 50
-5
  1
29.77
 72
1
 73
1
 11
5327397.179987
 21
6151804.056382
  0
TEXT
  8
Cotas
 10
5327441.309031
 20
6151817.290784
 62
90
 40
0.5
 50
84
  1
33.35
 72
1
 73
1
 11
5327441.309031
 21
6151817.290784
  0
TEXT
  8
Cotas
 10
5327417.658532
 20
6151871.003975
 62
90
 40
0.5
 50
85
  1
35.00
 72
1
 73
1
 11
5327417.658532
 21
6151871.003975
  0
TEXT
  8
Cotas
 10
5327431.979600
 20
6151869.800803
 62
90
 40
0.5
 50
85
  1
35.00
 72
1
 73
1
 11
5327431.979600
 21
6151869.800803
  0
TEXT
  8
Cotas
 10
5327448.283791
 20
6151868.373736
 62
90
 40
0.5
 50
84
  1
35.00
 72
1
 73
1
 11
5327448.283791
 21
6151868.373736
  0
TEXT
  8
Cotas
 10
5327390.145333
 20
6151873.323496
 62
90
 40
0.5
 50
84
  1
35.00
 72
1
 73
1
 11
5327390.145333
 21
6151873.323496
  0
TEXT
  8
Cotas
 10
5327475.069293
 20
6151866.137565
 62
90
 40
0.5
 50
85
  1
35.00
 72
1
 73
1
 11
5327475.069293
 21
6151866.137565
  0
TEXT
  8
Cotas
 10
5327429.040409
 20
6151818.309282
 62
90
 40
0.5
 50
85
  1
35.45
 72
1
 73
1
 11
5327429.040409
 21
6151818.309282
  0
TEXT
  8
Cotas
 10
5327427.049591
 20
6151818.500718
 62
90
 40
0.5
 50
85
  1
35.45
 72
1
 73
1
 11
5327427.049591
 21
6151818.500718
  0
TEXT
  8
Cotas
 10
5327412.600314
 20
6151819.737956
 62
90
 40
0.5
 50
84
  1
35.45
 72
1
 73
1
 11
5327412.600314
 21
6151819.737956
  0
TEXT
  8
Cotas
 10
5327385.165323
 20
6151822.038399
 62
90
 40
0.5
 50
84
  1
35.45
 72
1
 73
1
 11
5327385.165323
 21
6151822.038399
  0
TEXT
  8
Cotas
 10
5327451.439301
 20
6151835.404802
 62
90
 40
0.5
 50
-5
  1
43.75
 72
1
 73
1
 11
5327451.439301
 21
6151835.404802
  0
TEXT
  8
Cotas
 10
5327407.914741
 20
6151839.099125
 62
90
 40
0.5
 50
-5
  1
43.75
 72
1
 73
1
 11
5327407.914741
 21
6151839.099125
  0
ENDSEC
  0
ENDSEC
  0
EOF
