999
Agencia de Recaudación de la Provincia de Buenos Aires
999
DATE : Tue Jan 12 11:36:36 ART 2021
  0
SECTION
  2
HEADER
  9
$ACADVER
  1
AC1009
  9
$CECOLOR
 62
   256
  9
$CELTYPE
  6
DUPLAN
  9
$CLAYER
  8
0
  9
$ELEVATION
 40
0.000
  9
$EXTMAX
 10
5312160.650000
 20
6172869.140000
  9
$EXTMIN
 10
5311235.720000
 20
6172239.190000
  9
$INSBASE
 10
0.0
 20
0.0
 30
0.0
  9
$LIMCHECK
 70
     1
  9
$LIMMAX
 10
5312160.650000
 20
6172869.140000
  9
$LIMMIN
 10
5311235.720000
 20
6172239.190000
  9
$LUNITS
 70
     2
  9
$LUPREC
 70
     2
  0
ENDSEC
  0
SECTION
  2
TABLES
  0
TABLE
  2
STYLE
 70
     1
  0
STYLE
  2
STANDARD
 70
     0
 40
0.000
 41
1.000
 50
0.000
 71
     0
 42
1.000
  3
xxx.txt
  4
yyy.txt
  0
ENDTAB
  0
TABLE
  2
LTYPE
 70
     1
  0
LTYPE
  2
CONTINUE
 70
     0
  3

 72
    65
 73
     0
 40
0.000
  0
ENDTAB
  0
TABLE
  2
LAYER
 70
     2
  0
LAYER
  2
Macizo
 70
     0
 62
   131
  6
CONTINUE
  0
LAYER
  2
MacizosLinderos
 70
     0
 62
   131
  6
CONTINUE
  0
LAYER
  2
Parcelas
 70
     0
 62
   131
  6
CONTINUE
  0
LAYER
  2
ParcelasReunion
 70
     0
 62
   131
  6
CONTINUE
  0
LAYER
  2
Cotas
 70
     0
 62
   131
  6
CONTINUE
  0
ENDTAB
  0
ENDSEC
  0
SECTION
  2
ENTITIES
  0
POLYLINE
  8
Macizo
 62
    95
 66
     1
 10
0.0
 20
0.0
 70
     9
  0
VERTEX
  8
Macizo
 10
5311551.780
 20
6172687.000
 70
    32
  0
VERTEX
  8
Macizo
 10
5311531.960
 20
6172677.510
 70
    32
  0
VERTEX
  8
Macizo
 10
5311518.420
 20
6172671.030
 70
    32
  0
VERTEX
  8
Macizo
 10
5311504.900
 20
6172664.550
 70
    32
  0
VERTEX
  8
Macizo
 10
5311492.040
 20
6172658.450
 70
    32
  0
VERTEX
  8
Macizo
 10
5311491.730
 20
6172657.940
 70
    32
  0
VERTEX
  8
Macizo
 10
5311477.920
 20
6172651.000
 70
    32
  0
VERTEX
  8
Macizo
 10
5311459.130
 20
6172641.570
 70
    32
  0
VERTEX
  8
Macizo
 10
5311479.120
 20
6172601.920
 70
    32
  0
VERTEX
  8
Macizo
 10
5311485.810
 20
6172588.650
 70
    32
  0
VERTEX
  8
Macizo
 10
5311492.280
 20
6172575.820
 70
    32
  0
VERTEX
  8
Macizo
 10
5311512.490
 20
6172535.730
 70
    32
  0
VERTEX
  8
Macizo
 10
5311531.030
 20
6172544.930
 70
    32
  0
VERTEX
  8
Macizo
 10
5311545.070
 20
6172551.890
 70
    32
  0
VERTEX
  8
Macizo
 10
5311558.280
 20
6172558.440
 70
    32
  0
VERTEX
  8
Macizo
 10
5311571.910
 20
6172565.200
 70
    32
  0
VERTEX
  8
Macizo
 10
5311601.340
 20
6172579.790
 70
    32
  0
VERTEX
  8
Macizo
 10
5311603.010
 20
6172584.600
 70
    32
  0
VERTEX
  8
Macizo
 10
5311596.690
 20
6172597.230
 70
    32
  0
VERTEX
  8
Macizo
 10
5311591.260
 20
6172608.070
 70
    32
  0
VERTEX
  8
Macizo
 10
5311584.520
 20
6172621.560
 70
    32
  0
VERTEX
  8
Macizo
 10
5311578.000
 20
6172634.580
 70
    32
  0
VERTEX
  8
Macizo
 10
5311571.620
 20
6172647.340
 70
    32
  0
VERTEX
  8
Macizo
 10
5311551.780
 20
6172687.000
 70
    32
  0
SEQEND
  0
TEXT
  8
Macizo
 10
5311531.855745
 20
6172611.578484
 62
95
 40
3.0
 50
1
  1
Pdo- 44 Cir- 8 Sec- A Mz- 22
 72
1
 73
1
 11
5311531.855745
 21
6172611.578484
  0
POLYLINE
  8
MacizosLinderos
 62
   115
 66
     1
 10
0.0
 20
0.0
 70
     9
  0
VERTEX
  8
MacizosLinderos
 10
5311372.450
 20
6172757.660
 70
    32
  0
VERTEX
  8
MacizosLinderos
 10
5311348.160
 20
6172745.600
 70
    32
  0
VERTEX
  8
MacizosLinderos
 10
5311329.800
 20
6172736.490
 70
    32
  0
VERTEX
  8
MacizosLinderos
 10
5311311.370
 20
6172727.340
 70
    32
  0
VERTEX
  8
MacizosLinderos
 10
5311293.650
 20
6172718.530
 70
    32
  0
VERTEX
  8
MacizosLinderos
 10
5311275.640
 20
6172709.590
 70
    32
  0
VERTEX
  8
MacizosLinderos
 10
5311251.190
 20
6172697.450
 70
    32
  0
VERTEX
  8
MacizosLinderos
 10
5311270.720
 20
6172657.290
 70
    32
  0
VERTEX
  8
MacizosLinderos
 10
5311277.570
 20
6172643.210
 70
    32
  0
VERTEX
  8
MacizosLinderos
 10
5311284.190
 20
6172629.610
 70
    32
  0
VERTEX
  8
MacizosLinderos
 10
5311304.080
 20
6172588.700
 70
    32
  0
VERTEX
  8
MacizosLinderos
 10
5311328.370
 20
6172600.790
 70
    32
  0
VERTEX
  8
MacizosLinderos
 10
5311346.570
 20
6172609.840
 70
    32
  0
VERTEX
  8
MacizosLinderos
 10
5311364.960
 20
6172618.990
 70
    32
  0
VERTEX
  8
MacizosLinderos
 10
5311383.620
 20
6172628.280
 70
    32
  0
VERTEX
  8
MacizosLinderos
 10
5311401.380
 20
6172637.120
 70
    32
  0
VERTEX
  8
MacizosLinderos
 10
5311425.720
 20
6172649.230
 70
    32
  0
VERTEX
  8
MacizosLinderos
 10
5311405.710
 20
6172689.970
 70
    32
  0
VERTEX
  8
MacizosLinderos
 10
5311399.010
 20
6172703.600
 70
    32
  0
VERTEX
  8
MacizosLinderos
 10
5311392.070
 20
6172717.730
 70
    32
  0
VERTEX
  8
MacizosLinderos
 10
5311372.450
 20
6172757.660
 70
    32
  0
SEQEND
  0
TEXT
  8
MacizosLinderos
 10
5311338.367091
 20
6172673.224602
 62
115
 40
3.0
 50
1
  1
Pdo- 44 Cir- 8 Sec- A Mz- 26
 72
1
 73
1
 11
5311338.367091
 21
6172673.224602
  0
POLYLINE
  8
MacizosLinderos
 62
   115
 66
     1
 10
0.0
 20
0.0
 70
     9
  0
VERTEX
  8
MacizosLinderos
 10
5311431.520
 20
6172628.260
 70
    32
  0
VERTEX
  8
MacizosLinderos
 10
5311424.260
 20
6172624.700
 70
    32
  0
VERTEX
  8
MacizosLinderos
 10
5311413.660
 20
6172619.480
 70
    32
  0
VERTEX
  8
MacizosLinderos
 10
5311402.860
 20
6172614.170
 70
    32
  0
VERTEX
  8
MacizosLinderos
 10
5311392.230
 20
6172608.950
 70
    32
  0
VERTEX
  8
MacizosLinderos
 10
5311373.550
 20
6172599.760
 70
    32
  0
VERTEX
  8
MacizosLinderos
 10
5311355.730
 20
6172591.000
 70
    32
  0
VERTEX
  8
MacizosLinderos
 10
5311337.860
 20
6172582.210
 70
    32
  0
VERTEX
  8
MacizosLinderos
 10
5311315.530
 20
6172571.230
 70
    32
  0
VERTEX
  8
MacizosLinderos
 10
5311314.480
 20
6172566.800
 70
    32
  0
VERTEX
  8
MacizosLinderos
 10
5311319.550
 20
6172556.180
 70
    32
  0
VERTEX
  8
MacizosLinderos
 10
5311325.900
 20
6172542.900
 70
    32
  0
VERTEX
  8
MacizosLinderos
 10
5311332.300
 20
6172529.510
 70
    32
  0
VERTEX
  8
MacizosLinderos
 10
5311339.150
 20
6172515.170
 70
    32
  0
VERTEX
  8
MacizosLinderos
 10
5311345.570
 20
6172501.730
 70
    32
  0
VERTEX
  8
MacizosLinderos
 10
5311353.620
 20
6172484.880
 70
    32
  0
VERTEX
  8
MacizosLinderos
 10
5311359.490
 20
6172472.610
 70
    32
  0
VERTEX
  8
MacizosLinderos
 10
5311364.040
 20
6172463.070
 70
    32
  0
VERTEX
  8
MacizosLinderos
 10
5311366.980
 20
6172461.420
 70
    32
  0
VERTEX
  8
MacizosLinderos
 10
5311390.050
 20
6172472.780
 70
    32
  0
VERTEX
  8
MacizosLinderos
 10
5311408.200
 20
6172481.730
 70
    32
  0
VERTEX
  8
MacizosLinderos
 10
5311425.940
 20
6172490.470
 70
    32
  0
VERTEX
  8
MacizosLinderos
 10
5311444.550
 20
6172499.630
 70
    32
  0
VERTEX
  8
MacizosLinderos
 10
5311462.610
 20
6172508.530
 70
    32
  0
VERTEX
  8
MacizosLinderos
 10
5311475.310
 20
6172514.780
 70
    32
  0
VERTEX
  8
MacizosLinderos
 10
5311483.890
 20
6172519.010
 70
    32
  0
VERTEX
  8
MacizosLinderos
 10
5311485.270
 20
6172523.840
 70
    32
  0
VERTEX
  8
MacizosLinderos
 10
5311477.170
 20
6172540.890
 70
    32
  0
VERTEX
  8
MacizosLinderos
 10
5311467.240
 20
6172561.820
 70
    32
  0
VERTEX
  8
MacizosLinderos
 10
5311460.780
 20
6172575.430
 70
    32
  0
VERTEX
  8
MacizosLinderos
 10
5311453.970
 20
6172589.760
 70
    32
  0
VERTEX
  8
MacizosLinderos
 10
5311448.750
 20
6172600.750
 70
    32
  0
VERTEX
  8
MacizosLinderos
 10
5311436.640
 20
6172626.260
 70
    32
  0
VERTEX
  8
MacizosLinderos
 10
5311431.520
 20
6172628.260
 70
    32
  0
SEQEND
  0
TEXT
  8
MacizosLinderos
 10
5311399.958879
 20
6172545.227323
 62
115
 40
3.0
 50
1
  1
Pdo- 44 Cir- 8 Sec- A Mz- 27
 72
1
 73
1
 11
5311399.958879
 21
6172545.227323
  0
POLYLINE
  8
MacizosLinderos
 62
   115
 66
     1
 10
0.0
 20
0.0
 70
     9
  0
VERTEX
  8
MacizosLinderos
 10
5311486.890
 20
6172812.570
 70
    32
  0
VERTEX
  8
MacizosLinderos
 10
5311467.640
 20
6172803.050
 70
    32
  0
VERTEX
  8
MacizosLinderos
 10
5311454.370
 20
6172796.490
 70
    32
  0
VERTEX
  8
MacizosLinderos
 10
5311440.930
 20
6172789.840
 70
    32
  0
VERTEX
  8
MacizosLinderos
 10
5311427.410
 20
6172783.150
 70
    32
  0
VERTEX
  8
MacizosLinderos
 10
5311414.080
 20
6172776.560
 70
    32
  0
VERTEX
  8
MacizosLinderos
 10
5311394.500
 20
6172766.870
 70
    32
  0
VERTEX
  8
MacizosLinderos
 10
5311414.810
 20
6172726.950
 70
    32
  0
VERTEX
  8
MacizosLinderos
 10
5311421.520
 20
6172713.750
 70
    32
  0
VERTEX
  8
MacizosLinderos
 10
5311428.330
 20
6172700.360
 70
    32
  0
VERTEX
  8
MacizosLinderos
 10
5311438.480
 20
6172680.400
 70
    32
  0
VERTEX
  8
MacizosLinderos
 10
5311447.560
 20
6172662.550
 70
    32
  0
VERTEX
  8
MacizosLinderos
 10
5311452.230
 20
6172661.350
 70
    32
  0
VERTEX
  8
MacizosLinderos
 10
5311468.280
 20
6172669.320
 70
    32
  0
VERTEX
  8
MacizosLinderos
 10
5311481.800
 20
6172676.050
 70
    32
  0
VERTEX
  8
MacizosLinderos
 10
5311495.310
 20
6172682.760
 70
    32
  0
VERTEX
  8
MacizosLinderos
 10
5311508.700
 20
6172689.410
 70
    32
  0
VERTEX
  8
MacizosLinderos
 10
5311522.150
 20
6172696.100
 70
    32
  0
VERTEX
  8
MacizosLinderos
 10
5311541.170
 20
6172705.550
 70
    32
  0
VERTEX
  8
MacizosLinderos
 10
5311520.420
 20
6172746.470
 70
    32
  0
VERTEX
  8
MacizosLinderos
 10
5311513.930
 20
6172759.250
 70
    32
  0
VERTEX
  8
MacizosLinderos
 10
5311506.950
 20
6172773.010
 70
    32
  0
VERTEX
  8
MacizosLinderos
 10
5311486.890
 20
6172812.570
 70
    32
  0
SEQEND
  0
TEXT
  8
MacizosLinderos
 10
5311467.877584
 20
6172736.223096
 62
115
 40
3.0
 50
1
  1
Pdo- 44 Cir- 8 Sec- A Mz- 21
 72
1
 73
1
 11
5311467.877584
 21
6172736.223096
  0
POLYLINE
  8
MacizosLinderos
 62
   115
 66
     1
 10
0.0
 20
0.0
 70
     9
  0
VERTEX
  8
MacizosLinderos
 10
5311605.220
 20
6172869.140
 70
    32
  0
VERTEX
  8
MacizosLinderos
 10
5311582.280
 20
6172858.250
 70
    32
  0
VERTEX
  8
MacizosLinderos
 10
5311563.950
 20
6172849.380
 70
    32
  0
VERTEX
  8
MacizosLinderos
 10
5311546.080
 20
6172840.770
 70
    32
  0
VERTEX
  8
MacizosLinderos
 10
5311527.410
 20
6172831.730
 70
    32
  0
VERTEX
  8
MacizosLinderos
 10
5311504.990
 20
6172820.770
 70
    32
  0
VERTEX
  8
MacizosLinderos
 10
5311524.800
 20
6172780.360
 70
    32
  0
VERTEX
  8
MacizosLinderos
 10
5311531.610
 20
6172766.640
 70
    32
  0
VERTEX
  8
MacizosLinderos
 10
5311538.290
 20
6172753.120
 70
    32
  0
VERTEX
  8
MacizosLinderos
 10
5311558.300
 20
6172712.700
 70
    32
  0
VERTEX
  8
MacizosLinderos
 10
5311581.050
 20
6172723.680
 70
    32
  0
VERTEX
  8
MacizosLinderos
 10
5311599.470
 20
6172732.500
 70
    32
  0
VERTEX
  8
MacizosLinderos
 10
5311617.520
 20
6172741.330
 70
    32
  0
VERTEX
  8
MacizosLinderos
 10
5311635.810
 20
6172750.050
 70
    32
  0
VERTEX
  8
MacizosLinderos
 10
5311658.610
 20
6172761.190
 70
    32
  0
VERTEX
  8
MacizosLinderos
 10
5311638.530
 20
6172801.370
 70
    32
  0
VERTEX
  8
MacizosLinderos
 10
5311632.010
 20
6172814.680
 70
    32
  0
VERTEX
  8
MacizosLinderos
 10
5311625.190
 20
6172828.390
 70
    32
  0
VERTEX
  8
MacizosLinderos
 10
5311605.220
 20
6172869.140
 70
    32
  0
SEQEND
  0
TEXT
  8
MacizosLinderos
 10
5311581.696399
 20
6172790.941249
 62
115
 40
3.0
 50
1
  1
Pdo- 44 Cir- 8 Sec- A Mz- 16
 72
1
 73
1
 11
5311581.696399
 21
6172790.941249
  0
POLYLINE
  8
MacizosLinderos
 62
   115
 66
     1
 10
0.0
 20
0.0
 70
     9
  0
VERTEX
  8
MacizosLinderos
 10
5311667.970
 20
6172746.360
 70
    32
  0
VERTEX
  8
MacizosLinderos
 10
5311645.390
 20
6172735.170
 70
    32
  0
VERTEX
  8
MacizosLinderos
 10
5311627.380
 20
6172726.260
 70
    32
  0
VERTEX
  8
MacizosLinderos
 10
5311609.790
 20
6172717.540
 70
    32
  0
VERTEX
  8
MacizosLinderos
 10
5311591.680
 20
6172708.570
 70
    32
  0
VERTEX
  8
MacizosLinderos
 10
5311569.410
 20
6172697.540
 70
    32
  0
VERTEX
  8
MacizosLinderos
 10
5311589.690
 20
6172657.550
 70
    32
  0
VERTEX
  8
MacizosLinderos
 10
5311596.480
 20
6172644.150
 70
    32
  0
VERTEX
  8
MacizosLinderos
 10
5311603.110
 20
6172631.060
 70
    32
  0
VERTEX
  8
MacizosLinderos
 10
5311623.310
 20
6172591.200
 70
    32
  0
VERTEX
  8
MacizosLinderos
 10
5311645.860
 20
6172602.390
 70
    32
  0
VERTEX
  8
MacizosLinderos
 10
5311663.830
 20
6172611.310
 70
    32
  0
VERTEX
  8
MacizosLinderos
 10
5311681.450
 20
6172620.060
 70
    32
  0
VERTEX
  8
MacizosLinderos
 10
5311699.440
 20
6172628.990
 70
    32
  0
VERTEX
  8
MacizosLinderos
 10
5311721.850
 20
6172640.120
 70
    32
  0
VERTEX
  8
MacizosLinderos
 10
5311701.820
 20
6172679.620
 70
    32
  0
VERTEX
  8
MacizosLinderos
 10
5311695.100
 20
6172692.870
 70
    32
  0
VERTEX
  8
MacizosLinderos
 10
5311688.240
 20
6172706.390
 70
    32
  0
VERTEX
  8
MacizosLinderos
 10
5311667.970
 20
6172746.360
 70
    32
  0
SEQEND
  0
TEXT
  8
MacizosLinderos
 10
5311645.632402
 20
6172668.798231
 62
115
 40
3.0
 50
1
  1
Pdo- 44 Cir- 8 Sec- A Mz- 17
 72
1
 73
1
 11
5311645.632402
 21
6172668.798231
  0
POLYLINE
  8
MacizosLinderos
 62
   115
 66
     1
 10
0.0
 20
0.0
 70
     9
  0
VERTEX
  8
MacizosLinderos
 10
5312095.810
 20
6172800.090
 70
    32
  0
VERTEX
  8
MacizosLinderos
 10
5311697.720
 20
6172603.010
 70
    32
  0
VERTEX
  8
MacizosLinderos
 10
5311702.850
 20
6172592.210
 70
    32
  0
VERTEX
  8
MacizosLinderos
 10
5311692.100
 20
6172586.840
 70
    32
  0
VERTEX
  8
MacizosLinderos
 10
5311686.650
 20
6172597.960
 70
    32
  0
VERTEX
  8
MacizosLinderos
 10
5311235.720
 20
6172373.660
 70
    32
  0
VERTEX
  8
MacizosLinderos
 10
5311278.780
 20
6172288.180
 70
    32
  0
VERTEX
  8
MacizosLinderos
 10
5311286.360
 20
6172270.980
 70
    32
  0
VERTEX
  8
MacizosLinderos
 10
5311302.100
 20
6172239.190
 70
    32
  0
VERTEX
  8
MacizosLinderos
 10
5312160.650
 20
6172668.190
 70
    32
  0
VERTEX
  8
MacizosLinderos
 10
5312147.900
 20
6172693.630
 70
    32
  0
VERTEX
  8
MacizosLinderos
 10
5312139.570
 20
6172710.050
 70
    32
  0
VERTEX
  8
MacizosLinderos
 10
5312137.660
 20
6172714.340
 70
    32
  0
VERTEX
  8
MacizosLinderos
 10
5312095.810
 20
6172800.090
 70
    32
  0
SEQEND
  0
TEXT
  8
MacizosLinderos
 10
5311697.055746
 20
6172519.586850
 62
115
 40
3.0
 50
1
  1
Pdo- 44 Cir- 8 Sec- A Fr- 2
 72
1
 73
1
 11
5311697.055746
 21
6172519.586850
  0
POLYLINE
  8
Parcelas
 62
   100
 66
     1
 10
0.0
 20
0.0
 70
     9
  0
VERTEX
  8
Parcelas
 10
5311531.960
 20
6172677.510
 70
    32
  0
VERTEX
  8
Parcelas
 10
5311518.420
 20
6172671.030
 70
    32
  0
VERTEX
  8
Parcelas
 10
5311538.420
 20
6172631.070
 70
    32
  0
VERTEX
  8
Parcelas
 10
5311551.910
 20
6172637.680
 70
    32
  0
VERTEX
  8
Parcelas
 10
5311531.960
 20
6172677.510
 70
    32
  0
SEQEND
  0
TEXT
  8
Parcelas
 10
5311535.175492
 20
6172654.317816
 62
100
 40
2.0
 50
1
  1
16
 72
1
 73
1
 11
5311535.175492
 21
6172654.317816
  0
POLYLINE
  8
Parcelas
 62
   100
 66
     1
 10
0.0
 20
0.0
 70
     9
  0
VERTEX
  8
Parcelas
 10
5311511.650
 20
6172617.930
 70
    32
  0
VERTEX
  8
Parcelas
 10
5311525.040
 20
6172624.520
 70
    32
  0
VERTEX
  8
Parcelas
 10
5311504.900
 20
6172664.550
 70
    32
  0
VERTEX
  8
Parcelas
 10
5311492.040
 20
6172658.450
 70
    32
  0
VERTEX
  8
Parcelas
 10
5311491.730
 20
6172657.940
 70
    32
  0
VERTEX
  8
Parcelas
 10
5311511.650
 20
6172617.930
 70
    32
  0
SEQEND
  0
TEXT
  8
Parcelas
 10
5311508.311492
 20
6172641.261191
 62
100
 40
2.0
 50
1
  1
14
 72
1
 73
1
 11
5311508.311492
 21
6172641.261191
  0
POLYLINE
  8
Parcelas
 62
   100
 66
     1
 10
0.0
 20
0.0
 70
     9
  0
VERTEX
  8
Parcelas
 10
5311491.730
 20
6172657.940
 70
    32
  0
VERTEX
  8
Parcelas
 10
5311477.920
 20
6172651.000
 70
    32
  0
VERTEX
  8
Parcelas
 10
5311497.770
 20
6172611.100
 70
    32
  0
VERTEX
  8
Parcelas
 10
5311511.650
 20
6172617.930
 70
    32
  0
VERTEX
  8
Parcelas
 10
5311491.730
 20
6172657.940
 70
    32
  0
SEQEND
  0
TEXT
  8
Parcelas
 10
5311494.772316
 20
6172634.491226
 62
100
 40
2.0
 50
1
  1
13
 72
1
 73
1
 11
5311494.772316
 21
6172634.491226
  0
POLYLINE
  8
Parcelas
 62
   100
 66
     1
 10
0.0
 20
0.0
 70
     9
  0
VERTEX
  8
Parcelas
 10
5311531.030
 20
6172544.930
 70
    32
  0
VERTEX
  8
Parcelas
 10
5311545.070
 20
6172551.890
 70
    32
  0
VERTEX
  8
Parcelas
 10
5311524.960
 20
6172592.010
 70
    32
  0
VERTEX
  8
Parcelas
 10
5311510.890
 20
6172585.040
 70
    32
  0
VERTEX
  8
Parcelas
 10
5311531.030
 20
6172544.930
 70
    32
  0
SEQEND
  0
TEXT
  8
Parcelas
 10
5311527.984040
 20
6172568.474114
 62
100
 40
2.0
 50
1
  1
8
 72
1
 73
1
 11
5311527.984040
 21
6172568.474114
  0
POLYLINE
  8
Parcelas
 62
   100
 66
     1
 10
0.0
 20
0.0
 70
     9
  0
VERTEX
  8
Parcelas
 10
5311538.120
 20
6172598.530
 70
    32
  0
VERTEX
  8
Parcelas
 10
5311558.280
 20
6172558.440
 70
    32
  0
VERTEX
  8
Parcelas
 10
5311571.910
 20
6172565.200
 70
    32
  0
VERTEX
  8
Parcelas
 10
5311564.050
 20
6172581.150
 70
    32
  0
VERTEX
  8
Parcelas
 10
5311558.590
 20
6172592.210
 70
    32
  0
VERTEX
  8
Parcelas
 10
5311552.060
 20
6172605.450
 70
    32
  0
VERTEX
  8
Parcelas
 10
5311538.120
 20
6172598.530
 70
    32
  0
SEQEND
  0
TEXT
  8
Parcelas
 10
5311555.056033
 20
6172581.980748
 62
100
 40
2.0
 50
1
  1
6
 72
1
 73
1
 11
5311555.056033
 21
6172581.980748
  0
POLYLINE
  8
Parcelas
 62
   100
 66
     1
 10
0.0
 20
0.0
 70
     9
  0
VERTEX
  8
Parcelas
 10
5311564.050
 20
6172581.150
 70
    32
  0
VERTEX
  8
Parcelas
 10
5311571.910
 20
6172565.200
 70
    32
  0
VERTEX
  8
Parcelas
 10
5311601.340
 20
6172579.790
 70
    32
  0
VERTEX
  8
Parcelas
 10
5311603.010
 20
6172584.600
 70
    32
  0
VERTEX
  8
Parcelas
 10
5311596.690
 20
6172597.230
 70
    32
  0
VERTEX
  8
Parcelas
 10
5311564.050
 20
6172581.150
 70
    32
  0
SEQEND
  0
TEXT
  8
Parcelas
 10
5311584.112205
 20
6172581.229440
 62
100
 40
2.0
 50
1
  1
5 A
 72
1
 73
1
 11
5311584.112205
 21
6172581.229440
  0
POLYLINE
  8
Parcelas
 62
   100
 66
     1
 10
0.0
 20
0.0
 70
     9
  0
VERTEX
  8
Parcelas
 10
5311564.050
 20
6172581.150
 70
    32
  0
VERTEX
  8
Parcelas
 10
5311596.690
 20
6172597.230
 70
    32
  0
VERTEX
  8
Parcelas
 10
5311591.260
 20
6172608.070
 70
    32
  0
VERTEX
  8
Parcelas
 10
5311558.590
 20
6172592.210
 70
    32
  0
VERTEX
  8
Parcelas
 10
5311564.050
 20
6172581.150
 70
    32
  0
SEQEND
  0
TEXT
  8
Parcelas
 10
5311577.601476
 20
6172594.640273
 62
100
 40
2.0
 50
1
  1
4 B
 72
1
 73
1
 11
5311577.601476
 21
6172594.640273
  0
POLYLINE
  8
Parcelas
 62
   100
 66
     1
 10
0.0
 20
0.0
 70
     9
  0
VERTEX
  8
Parcelas
 10
5311510.890
 20
6172585.040
 70
    32
  0
VERTEX
  8
Parcelas
 10
5311492.280
 20
6172575.820
 70
    32
  0
VERTEX
  8
Parcelas
 10
5311512.490
 20
6172535.730
 70
    32
  0
VERTEX
  8
Parcelas
 10
5311531.030
 20
6172544.930
 70
    32
  0
VERTEX
  8
Parcelas
 10
5311510.890
 20
6172585.040
 70
    32
  0
SEQEND
  0
TEXT
  8
Parcelas
 10
5311511.666246
 20
6172560.391302
 62
100
 40
2.0
 50
1
  1
9
 72
1
 73
1
 11
5311511.666246
 21
6172560.391302
  0
POLYLINE
  8
Parcelas
 62
   100
 66
     1
 10
0.0
 20
0.0
 70
     9
  0
VERTEX
  8
Parcelas
 10
5311524.960
 20
6172592.010
 70
    32
  0
VERTEX
  8
Parcelas
 10
5311545.070
 20
6172551.890
 70
    32
  0
VERTEX
  8
Parcelas
 10
5311558.280
 20
6172558.440
 70
    32
  0
VERTEX
  8
Parcelas
 10
5311538.120
 20
6172598.530
 70
    32
  0
VERTEX
  8
Parcelas
 10
5311524.960
 20
6172592.010
 70
    32
  0
SEQEND
  0
TEXT
  8
Parcelas
 10
5311541.614015
 20
6172575.204238
 62
100
 40
2.0
 50
1
  1
7
 72
1
 73
1
 11
5311541.614015
 21
6172575.204238
  0
POLYLINE
  8
Parcelas
 62
   100
 66
     1
 10
0.0
 20
0.0
 70
     9
  0
VERTEX
  8
Parcelas
 10
5311558.590
 20
6172592.210
 70
    32
  0
VERTEX
  8
Parcelas
 10
5311591.260
 20
6172608.070
 70
    32
  0
VERTEX
  8
Parcelas
 10
5311584.520
 20
6172621.560
 70
    32
  0
VERTEX
  8
Parcelas
 10
5311552.060
 20
6172605.450
 70
    32
  0
VERTEX
  8
Parcelas
 10
5311558.590
 20
6172592.210
 70
    32
  0
SEQEND
  0
TEXT
  8
Parcelas
 10
5311571.666318
 20
6172606.848434
 62
100
 40
2.0
 50
1
  1
4 A
 72
1
 73
1
 11
5311571.666318
 21
6172606.848434
  0
POLYLINE
  8
Parcelas
 62
   100
 66
     1
 10
0.0
 20
0.0
 70
     9
  0
VERTEX
  8
Parcelas
 10
5311552.060
 20
6172605.450
 70
    32
  0
VERTEX
  8
Parcelas
 10
5311584.520
 20
6172621.560
 70
    32
  0
VERTEX
  8
Parcelas
 10
5311578.000
 20
6172634.580
 70
    32
  0
VERTEX
  8
Parcelas
 10
5311531.590
 20
6172611.500
 70
    32
  0
VERTEX
  8
Parcelas
 10
5311538.120
 20
6172598.530
 70
    32
  0
VERTEX
  8
Parcelas
 10
5311552.060
 20
6172605.450
 70
    32
  0
SEQEND
  0
TEXT
  8
Parcelas
 10
5311558.067890
 20
6172616.548750
 62
100
 40
2.0
 50
1
  1
3
 72
1
 73
1
 11
5311558.067890
 21
6172616.548750
  0
POLYLINE
  8
Parcelas
 62
   100
 66
     1
 10
0.0
 20
0.0
 70
     9
  0
VERTEX
  8
Parcelas
 10
5311551.910
 20
6172637.680
 70
    32
  0
VERTEX
  8
Parcelas
 10
5311538.420
 20
6172631.070
 70
    32
  0
VERTEX
  8
Parcelas
 10
5311525.040
 20
6172624.520
 70
    32
  0
VERTEX
  8
Parcelas
 10
5311531.590
 20
6172611.500
 70
    32
  0
VERTEX
  8
Parcelas
 10
5311578.000
 20
6172634.580
 70
    32
  0
VERTEX
  8
Parcelas
 10
5311571.620
 20
6172647.340
 70
    32
  0
VERTEX
  8
Parcelas
 10
5311551.910
 20
6172637.680
 70
    32
  0
SEQEND
  0
TEXT
  8
Parcelas
 10
5311551.480223
 20
6172629.443888
 62
100
 40
2.0
 50
1
  1
2
 72
1
 73
1
 11
5311551.480223
 21
6172629.443888
  0
POLYLINE
  8
Parcelas
 62
   100
 66
     1
 10
0.0
 20
0.0
 70
     9
  0
VERTEX
  8
Parcelas
 10
5311518.420
 20
6172671.030
 70
    32
  0
VERTEX
  8
Parcelas
 10
5311504.900
 20
6172664.550
 70
    32
  0
VERTEX
  8
Parcelas
 10
5311525.040
 20
6172624.520
 70
    32
  0
VERTEX
  8
Parcelas
 10
5311538.420
 20
6172631.070
 70
    32
  0
VERTEX
  8
Parcelas
 10
5311518.420
 20
6172671.030
 70
    32
  0
SEQEND
  0
TEXT
  8
Parcelas
 10
5311521.681402
 20
6172647.811901
 62
100
 40
2.0
 50
1
  1
15
 72
1
 73
1
 11
5311521.681402
 21
6172647.811901
  0
POLYLINE
  8
Parcelas
 62
   100
 66
     1
 10
0.0
 20
0.0
 70
     9
  0
VERTEX
  8
Parcelas
 10
5311551.910
 20
6172637.680
 70
    32
  0
VERTEX
  8
Parcelas
 10
5311571.620
 20
6172647.340
 70
    32
  0
VERTEX
  8
Parcelas
 10
5311551.780
 20
6172687.000
 70
    32
  0
VERTEX
  8
Parcelas
 10
5311531.960
 20
6172677.510
 70
    32
  0
VERTEX
  8
Parcelas
 10
5311551.910
 20
6172637.680
 70
    32
  0
SEQEND
  0
TEXT
  8
Parcelas
 10
5311551.808371
 20
6172662.382251
 62
100
 40
2.0
 50
1
  1
1
 72
1
 73
1
 11
5311551.808371
 21
6172662.382251
  0
POLYLINE
  8
Parcelas
 62
   100
 66
     1
 10
0.0
 20
0.0
 70
     9
  0
VERTEX
  8
Parcelas
 10
5311497.770
 20
6172611.100
 70
    32
  0
VERTEX
  8
Parcelas
 10
5311477.920
 20
6172651.000
 70
    32
  0
VERTEX
  8
Parcelas
 10
5311459.130
 20
6172641.570
 70
    32
  0
VERTEX
  8
Parcelas
 10
5311479.120
 20
6172601.920
 70
    32
  0
VERTEX
  8
Parcelas
 10
5311497.770
 20
6172611.100
 70
    32
  0
SEQEND
  0
TEXT
  8
Parcelas
 10
5311478.471836
 20
6172626.437914
 62
100
 40
2.0
 50
1
  1
12
 72
1
 73
1
 11
5311478.471836
 21
6172626.437914
  0
POLYLINE
  8
Parcelas
 62
   100
 66
     1
 10
0.0
 20
0.0
 70
     9
  0
VERTEX
  8
Parcelas
 10
5311497.770
 20
6172611.100
 70
    32
  0
VERTEX
  8
Parcelas
 10
5311479.120
 20
6172601.920
 70
    32
  0
VERTEX
  8
Parcelas
 10
5311485.810
 20
6172588.650
 70
    32
  0
VERTEX
  8
Parcelas
 10
5311531.590
 20
6172611.500
 70
    32
  0
VERTEX
  8
Parcelas
 10
5311525.040
 20
6172624.520
 70
    32
  0
VERTEX
  8
Parcelas
 10
5311511.650
 20
6172617.930
 70
    32
  0
VERTEX
  8
Parcelas
 10
5311497.770
 20
6172611.100
 70
    32
  0
SEQEND
  0
TEXT
  8
Parcelas
 10
5311505.315336
 20
6172606.611050
 62
100
 40
2.0
 50
1
  1
11
 72
1
 73
1
 11
5311505.315336
 21
6172606.611050
  0
POLYLINE
  8
Parcelas
 62
   100
 66
     1
 10
0.0
 20
0.0
 70
     9
  0
VERTEX
  8
Parcelas
 10
5311510.890
 20
6172585.040
 70
    32
  0
VERTEX
  8
Parcelas
 10
5311524.960
 20
6172592.010
 70
    32
  0
VERTEX
  8
Parcelas
 10
5311538.120
 20
6172598.530
 70
    32
  0
VERTEX
  8
Parcelas
 10
5311531.590
 20
6172611.500
 70
    32
  0
VERTEX
  8
Parcelas
 10
5311485.810
 20
6172588.650
 70
    32
  0
VERTEX
  8
Parcelas
 10
5311492.280
 20
6172575.820
 70
    32
  0
VERTEX
  8
Parcelas
 10
5311510.890
 20
6172585.040
 70
    32
  0
SEQEND
  0
TEXT
  8
Parcelas
 10
5311511.990172
 20
6172593.645226
 62
100
 40
2.0
 50
1
  1
10
 72
1
 73
1
 11
5311511.990172
 21
6172593.645226
  0
TEXT
  8
Cotas
 10
5311598.960000
 20
6172590.470000
 62
90
 40
0.5
 50
-63
  1
15
 72
1
 73
1
 11
5311598.960000
 21
6172590.470000
  0
TEXT
  8
Cotas
 10
5311470.020000
 20
6172622.200000
 62
90
 40
0.5
 50
-63
  1
45
 72
1
 73
1
 11
5311470.020000
 21
6172622.200000
  0
TEXT
  8
Cotas
 10
5311562.220000
 20
6172587.120000
 62
90
 40
0.5
 50
-64
  1
12
 72
1
 73
1
 11
5311562.220000
 21
6172587.120000
  0
TEXT
  8
Cotas
 10
5311489.940000
 20
6172582.690000
 62
90
 40
0.5
 50
-63
  1
15
 72
1
 73
1
 11
5311489.940000
 21
6172582.690000
  0
TEXT
  8
Cotas
 10
5311483.360000
 20
6172595.740000
 62
90
 40
0.5
 50
-63
  1
15
 72
1
 73
1
 11
5311483.360000
 21
6172595.740000
  0
TEXT
  8
Cotas
 10
5311502.030000
 20
6172579.530000
 62
90
 40
0.5
 50
26
  1
21.5
 72
1
 73
1
 11
5311502.030000
 21
6172579.530000
  0
TEXT
  8
Cotas
 10
5311529.210000
 20
6172618.460000
 62
90
 40
0.5
 50
-63
  1
15
 72
1
 73
1
 11
5311529.210000
 21
6172618.460000
  0
TEXT
  8
Cotas
 10
5311488.000000
 20
6172607.410000
 62
90
 40
0.5
 50
26
  1
21.73
 72
1
 73
1
 11
5311488.000000
 21
6172607.410000
  0
TEXT
  8
Cotas
 10
5311593.080000
 20
6172602.200000
 62
90
 40
0.5
 50
-63
  1
12
 72
1
 73
1
 11
5311593.080000
 21
6172602.200000
  0
TEXT
  8
Cotas
 10
5311521.850000
 20
6172565.430000
 62
90
 40
0.5
 50
-63
  1
45
 72
1
 73
1
 11
5311521.850000
 21
6172565.430000
  0
TEXT
  8
Cotas
 10
5311488.740000
 20
6172631.500000
 62
90
 40
0.5
 50
-64
  1
45
 72
1
 73
1
 11
5311488.740000
 21
6172631.500000
  0
TEXT
  8
Cotas
 10
5311545.530000
 20
6172601.090000
 62
90
 40
0.5
 50
26
  1
15
 72
1
 73
1
 11
5311545.530000
 21
6172601.090000
  0
TEXT
  8
Cotas
 10
5311531.290000
 20
6172628.690000
 62
90
 40
0.5
 50
26
  1
15
 72
1
 73
1
 11
5311531.290000
 21
6172628.690000
  0
TEXT
  8
Cotas
 10
5311551.230000
 20
6172556.060000
 62
90
 40
0.5
 50
26
  1
15
 72
1
 73
1
 11
5311551.230000
 21
6172556.060000
  0
TEXT
  8
Cotas
 10
5311512.090000
 20
6172666.890000
 62
90
 40
0.5
 50
26
  1
15
 72
1
 73
1
 11
5311512.090000
 21
6172666.890000
  0
TEXT
  8
Cotas
 10
5311580.810000
 20
6172588.290000
 62
90
 40
0.5
 50
26
  1
36.5
 72
1
 73
1
 11
5311580.810000
 21
6172588.290000
  0
TEXT
  8
Cotas
 10
5311514.080000
 20
6172644.090000
 62
90
 40
0.5
 50
-63
  1
45
 72
1
 73
1
 11
5311514.080000
 21
6172644.090000
  0
TEXT
  8
Cotas
 10
5311560.810000
 20
6172666.720000
 62
90
 40
0.5
 50
-63
  1
45
 72
1
 73
1
 11
5311560.810000
 21
6172666.720000
  0
TEXT
  8
Cotas
 10
5311554.350000
 20
6172623.940000
 62
90
 40
0.5
 50
26
  1
51.5
 72
1
 73
1
 11
5311554.350000
 21
6172623.940000
  0
TEXT
  8
Cotas
 10
5311560.880000
 20
6172610.940000
 62
90
 40
0.5
 50
26
  1
51.5
 72
1
 73
1
 11
5311560.880000
 21
6172610.940000
  0
TEXT
  8
Cotas
 10
5311502.520000
 20
6172612.320000
 62
90
 40
0.5
 50
26
  1
51.5
 72
1
 73
1
 11
5311502.520000
 21
6172612.320000
  0
TEXT
  8
Cotas
 10
5311508.250000
 20
6172600.970000
 62
90
 40
0.5
 50
27
  1
51.5
 72
1
 73
1
 11
5311508.250000
 21
6172600.970000
  0
TEXT
  8
Cotas
 10
5311574.490000
 20
6172601.040000
 62
90
 40
0.5
 50
26
  1
36.5
 72
1
 73
1
 11
5311574.490000
 21
6172601.040000
  0
TEXT
  8
Cotas
 10
5311579.930000
 20
6172590.090000
 62
90
 40
0.5
 50
26
  1
36.5
 72
1
 73
1
 11
5311579.930000
 21
6172590.090000
  0
TEXT
  8
Cotas
 10
5311547.310000
 20
6172578.040000
 62
90
 40
0.5
 50
-63
  1
45
 72
1
 73
1
 11
5311547.310000
 21
6172578.040000
  0
TEXT
  8
Cotas
 10
5311486.950000
 20
6172630.600000
 62
90
 40
0.5
 50
-64
  1
45
 72
1
 73
1
 11
5311486.950000
 21
6172630.600000
  0
TEXT
  8
Cotas
 10
5311548.770000
 20
6172635.030000
 62
90
 40
0.5
 50
26
  1
51.5
 72
1
 73
1
 11
5311548.770000
 21
6172635.030000
  0
TEXT
  8
Cotas
 10
5311527.420000
 20
6172617.560000
 62
90
 40
0.5
 50
-63
  1
15
 72
1
 73
1
 11
5311527.420000
 21
6172617.560000
  0
TEXT
  8
Cotas
 10
5311485.270000
 20
6172653.580000
 62
90
 40
0.5
 50
27
  1
15
 72
1
 73
1
 11
5311485.270000
 21
6172653.580000
  0
TEXT
  8
Cotas
 10
5311561.320000
 20
6172643.410000
 62
90
 40
0.5
 50
26
  1
21.5
 72
1
 73
1
 11
5311561.320000
 21
6172643.410000
  0
TEXT
  8
Cotas
 10
5311601.230000
 20
6172582.520000
 62
90
 40
0.5
 50
71
  1
4.24
 72
1
 73
1
 11
5311601.230000
 21
6172582.520000
  0
TEXT
  8
Cotas
 10
5311587.000000
 20
6172614.370000
 62
90
 40
0.5
 50
-63
  1
13
 72
1
 73
1
 11
5311587.000000
 21
6172614.370000
  0
TEXT
  8
Cotas
 10
5311580.370000
 20
6172627.620000
 62
90
 40
0.5
 50
-63
  1
15
 72
1
 73
1
 11
5311580.370000
 21
6172627.620000
  0
TEXT
  8
Cotas
 10
5311586.180000
 20
6172573.390000
 62
90
 40
0.5
 50
26
  1
33.5
 72
1
 73
1
 11
5311586.180000
 21
6172573.390000
  0
TEXT
  8
Cotas
 10
5311575.360000
 20
6172599.240000
 62
90
 40
0.5
 50
26
  1
36.5
 72
1
 73
1
 11
5311575.360000
 21
6172599.240000
  0
TEXT
  8
Cotas
 10
5311544.720000
 20
6172635.270000
 62
90
 40
0.5
 50
26
  1
15
 72
1
 73
1
 11
5311544.720000
 21
6172635.270000
  0
TEXT
  8
Cotas
 10
5311573.920000
 20
6172640.510000
 62
90
 40
0.5
 50
-63
  1
15
 72
1
 73
1
 11
5311573.920000
 21
6172640.510000
  0
TEXT
  8
Cotas
 10
5311498.900000
 20
6172660.600000
 62
90
 40
0.5
 50
25
  1
15
 72
1
 73
1
 11
5311498.900000
 21
6172660.600000
  0
TEXT
  8
Cotas
 10
5311525.620000
 20
6172673.370000
 62
90
 40
0.5
 50
26
  1
15
 72
1
 73
1
 11
5311525.620000
 21
6172673.370000
  0
TEXT
  8
Cotas
 10
5311542.300000
 20
6172681.350000
 62
90
 40
0.5
 50
26
  1
21.5
 72
1
 73
1
 11
5311542.300000
 21
6172681.350000
  0
TEXT
  8
Cotas
 10
5311542.830000
 20
6172658.040000
 62
90
 40
0.5
 50
-63
  1
45
 72
1
 73
1
 11
5311542.830000
 21
6172658.040000
  0
TEXT
  8
Cotas
 10
5311500.790000
 20
6172637.490000
 62
90
 40
0.5
 50
-64
  1
45
 72
1
 73
1
 11
5311500.790000
 21
6172637.490000
  0
TEXT
  8
Cotas
 10
5311502.590000
 20
6172638.380000
 62
90
 40
0.5
 50
-64
  1
45
 72
1
 73
1
 11
5311502.590000
 21
6172638.380000
  0
TEXT
  8
Cotas
 10
5311515.860000
 20
6172644.980000
 62
90
 40
0.5
 50
-63
  1
45
 72
1
 73
1
 11
5311515.860000
 21
6172644.980000
  0
TEXT
  8
Cotas
 10
5311527.530000
 20
6172650.600000
 62
90
 40
0.5
 50
-63
  1
45
 72
1
 73
1
 11
5311527.530000
 21
6172650.600000
  0
TEXT
  8
Cotas
 10
5311529.310000
 20
6172651.500000
 62
90
 40
0.5
 50
-63
  1
45
 72
1
 73
1
 11
5311529.310000
 21
6172651.500000
  0
TEXT
  8
Cotas
 10
5311541.040000
 20
6172657.150000
 62
90
 40
0.5
 50
-63
  1
45
 72
1
 73
1
 11
5311541.040000
 21
6172657.150000
  0
TEXT
  8
Cotas
 10
5311556.220000
 20
6172599.270000
 62
90
 40
0.5
 50
-64
  1
13
 72
1
 73
1
 11
5311556.220000
 21
6172599.270000
  0
TEXT
  8
Cotas
 10
5311535.750000
 20
6172605.460000
 62
90
 40
0.5
 50
-63
  1
15
 72
1
 73
1
 11
5311535.750000
 21
6172605.460000
  0
TEXT
  8
Cotas
 10
5311531.980000
 20
6172594.370000
 62
90
 40
0.5
 50
26
  1
15
 72
1
 73
1
 11
5311531.980000
 21
6172594.370000
  0
TEXT
  8
Cotas
 10
5311518.370000
 20
6172587.630000
 62
90
 40
0.5
 50
26
  1
15
 72
1
 73
1
 11
5311518.370000
 21
6172587.630000
  0
TEXT
  8
Cotas
 10
5311533.960000
 20
6172604.570000
 62
90
 40
0.5
 50
-63
  1
15
 72
1
 73
1
 11
5311533.960000
 21
6172604.570000
  0
TEXT
  8
Cotas
 10
5311504.270000
 20
6172615.410000
 62
90
 40
0.5
 50
26
  1
15
 72
1
 73
1
 11
5311504.270000
 21
6172615.410000
  0
TEXT
  8
Cotas
 10
5311517.900000
 20
6172622.120000
 62
90
 40
0.5
 50
26
  1
15
 72
1
 73
1
 11
5311517.900000
 21
6172622.120000
  0
TEXT
  8
Cotas
 10
5311564.650000
 20
6172562.720000
 62
90
 40
0.5
 50
26
  1
15
 72
1
 73
1
 11
5311564.650000
 21
6172562.720000
  0
TEXT
  8
Cotas
 10
5311537.610000
 20
6172549.310000
 62
90
 40
0.5
 50
26
  1
15
 72
1
 73
1
 11
5311537.610000
 21
6172549.310000
  0
TEXT
  8
Cotas
 10
5311568.880000
 20
6172573.620000
 62
90
 40
0.5
 50
-64
  1
18
 72
1
 73
1
 11
5311568.880000
 21
6172573.620000
  0
TEXT
  8
Cotas
 10
5311521.320000
 20
6172541.230000
 62
90
 40
0.5
 50
26
  1
21.5
 72
1
 73
1
 11
5311521.320000
 21
6172541.230000
  0
TEXT
  8
Cotas
 10
5311568.730000
 20
6172612.610000
 62
90
 40
0.5
 50
26
  1
36.5
 72
1
 73
1
 11
5311568.730000
 21
6172612.610000
  0
TEXT
  8
Cotas
 10
5311549.090000
 20
6172578.930000
 62
90
 40
0.5
 50
-63
  1
45
 72
1
 73
1
 11
5311549.090000
 21
6172578.930000
  0
TEXT
  8
Cotas
 10
5311561.090000
 20
6172584.880000
 62
90
 40
0.5
 50
-64
  1
45
 72
1
 73
1
 11
5311561.090000
 21
6172584.880000
  0
TEXT
  8
Cotas
 10
5311535.910000
 20
6172572.400000
 62
90
 40
0.5
 50
-63
  1
45
 72
1
 73
1
 11
5311535.910000
 21
6172572.400000
  0
TEXT
  8
Cotas
 10
5311534.120000
 20
6172571.500000
 62
90
 40
0.5
 50
-63
  1
45
 72
1
 73
1
 11
5311534.120000
 21
6172571.500000
  0
TEXT
  8
Cotas
 10
5311520.070000
 20
6172564.540000
 62
90
 40
0.5
 50
-63
  1
45
 72
1
 73
1
 11
5311520.070000
 21
6172564.540000
  0
TEXT
  8
Cotas
 10
5311503.280000
 20
6172556.230000
 62
90
 40
0.5
 50
-63
  1
45
 72
1
 73
1
 11
5311503.280000
 21
6172556.230000
  0
TEXT
  8
Cotas
 10
5311555.240000
 20
6172622.140000
 62
90
 40
0.5
 50
26
  1
51.5
 72
1
 73
1
 11
5311555.240000
 21
6172622.140000
  0
TEXT
  8
Cotas
 10
5311509.150000
 20
6172599.180000
 62
90
 40
0.5
 50
27
  1
51.5
 72
1
 73
1
 11
5311509.150000
 21
6172599.180000
  0
TEXT
  8
Cotas
 10
5311514.760000
 20
6172588.070000
 62
90
 40
0.5
 50
26
  1
51.5
 72
1
 73
1
 11
5311514.760000
 21
6172588.070000
  0
ENDSEC
  0
ENDSEC
  0
EOF